<mxfile host="app.diagrams.net" agent="Mozilla/5.0 (Windows NT 10.0; Win64; x64) AppleWebKit/537.36 (KHTML, like Gecko) Chrome/130.0.0.0 Safari/537.36" version="24.7.7">
  <diagram name="Page-1" id="TGusMKHJwRyoLdwCJfB8">
    <mxGraphModel dx="4445" dy="1413" grid="1" gridSize="10" guides="1" tooltips="1" connect="1" arrows="1" fold="1" page="1" pageScale="1" pageWidth="850" pageHeight="1100" math="0" shadow="0">
      <root>
        <mxCell id="0" />
        <mxCell id="1" parent="0" />
        <mxCell id="yE31wyP4Al2Zmjlklze--5" value="" style="endArrow=classic;html=1;rounded=0;exitX=0.5;exitY=1;exitDx=0;exitDy=0;entryX=0.5;entryY=0;entryDx=0;entryDy=0;" edge="1" parent="1" source="yE31wyP4Al2Zmjlklze--8" target="yE31wyP4Al2Zmjlklze--11">
          <mxGeometry width="50" height="50" relative="1" as="geometry">
            <mxPoint x="420" y="80" as="sourcePoint" />
            <mxPoint x="520" y="140" as="targetPoint" />
          </mxGeometry>
        </mxCell>
        <mxCell id="yE31wyP4Al2Zmjlklze--7" value="" style="endArrow=classic;html=1;rounded=0;entryX=0.5;entryY=0;entryDx=0;entryDy=0;exitX=0.5;exitY=1;exitDx=0;exitDy=0;" edge="1" parent="1" source="yE31wyP4Al2Zmjlklze--8" target="yE31wyP4Al2Zmjlklze--10">
          <mxGeometry width="50" height="50" relative="1" as="geometry">
            <mxPoint x="420" y="80" as="sourcePoint" />
            <mxPoint x="320" y="160" as="targetPoint" />
          </mxGeometry>
        </mxCell>
        <mxCell id="yE31wyP4Al2Zmjlklze--18" value="" style="group" vertex="1" connectable="0" parent="1">
          <mxGeometry x="320" y="40" width="160" height="40" as="geometry" />
        </mxCell>
        <mxCell id="yE31wyP4Al2Zmjlklze--8" value="10.6.x.x/16" style="rounded=0;whiteSpace=wrap;html=1;fontSize=16;" vertex="1" parent="yE31wyP4Al2Zmjlklze--18">
          <mxGeometry x="40" width="120" height="40" as="geometry" />
        </mxCell>
        <mxCell id="yE31wyP4Al2Zmjlklze--12" value="I1" style="text;html=1;align=center;verticalAlign=middle;whiteSpace=wrap;rounded=0;fontSize=16;" vertex="1" parent="yE31wyP4Al2Zmjlklze--18">
          <mxGeometry width="40" height="40" as="geometry" />
        </mxCell>
        <mxCell id="yE31wyP4Al2Zmjlklze--19" value="" style="group" vertex="1" connectable="0" parent="1">
          <mxGeometry x="-80" y="160" width="160" height="40" as="geometry" />
        </mxCell>
        <mxCell id="yE31wyP4Al2Zmjlklze--10" value="10.6.x.x/17" style="rounded=0;whiteSpace=wrap;html=1;fontSize=16;" vertex="1" parent="yE31wyP4Al2Zmjlklze--19">
          <mxGeometry x="40" width="120" height="40" as="geometry" />
        </mxCell>
        <mxCell id="yE31wyP4Al2Zmjlklze--13" value="H1" style="text;html=1;align=center;verticalAlign=middle;whiteSpace=wrap;rounded=0;fontSize=16;" vertex="1" parent="yE31wyP4Al2Zmjlklze--19">
          <mxGeometry width="40" height="40" as="geometry" />
        </mxCell>
        <mxCell id="yE31wyP4Al2Zmjlklze--20" value="" style="group" vertex="1" connectable="0" parent="1">
          <mxGeometry x="-510" y="280" width="160" height="40" as="geometry" />
        </mxCell>
        <mxCell id="yE31wyP4Al2Zmjlklze--15" value="10.6.x.x/18" style="rounded=0;whiteSpace=wrap;html=1;fontSize=16;" vertex="1" parent="yE31wyP4Al2Zmjlklze--20">
          <mxGeometry x="40" width="120" height="40" as="geometry" />
        </mxCell>
        <mxCell id="yE31wyP4Al2Zmjlklze--16" value="G2" style="text;html=1;align=center;verticalAlign=middle;whiteSpace=wrap;rounded=0;fontSize=16;" vertex="1" parent="yE31wyP4Al2Zmjlklze--20">
          <mxGeometry width="40" height="40" as="geometry" />
        </mxCell>
        <mxCell id="yE31wyP4Al2Zmjlklze--21" value="" style="group" vertex="1" connectable="0" parent="1">
          <mxGeometry x="200" y="280" width="160" height="40" as="geometry" />
        </mxCell>
        <mxCell id="yE31wyP4Al2Zmjlklze--14" value="10.6.x.x/21" style="rounded=0;whiteSpace=wrap;html=1;fontSize=16;" vertex="1" parent="yE31wyP4Al2Zmjlklze--21">
          <mxGeometry x="40" width="120" height="40" as="geometry" />
        </mxCell>
        <mxCell id="yE31wyP4Al2Zmjlklze--17" value="F5" style="text;html=1;align=center;verticalAlign=middle;whiteSpace=wrap;rounded=0;fontSize=16;" vertex="1" parent="yE31wyP4Al2Zmjlklze--21">
          <mxGeometry width="40" height="40" as="geometry" />
        </mxCell>
        <mxCell id="yE31wyP4Al2Zmjlklze--22" value="" style="endArrow=classic;html=1;rounded=0;entryX=0.5;entryY=0;entryDx=0;entryDy=0;exitX=0.5;exitY=1;exitDx=0;exitDy=0;" edge="1" parent="1" source="yE31wyP4Al2Zmjlklze--10" target="yE31wyP4Al2Zmjlklze--15">
          <mxGeometry width="50" height="50" relative="1" as="geometry">
            <mxPoint x="430" y="90" as="sourcePoint" />
            <mxPoint x="210" y="170" as="targetPoint" />
          </mxGeometry>
        </mxCell>
        <mxCell id="yE31wyP4Al2Zmjlklze--23" value="" style="endArrow=classic;html=1;rounded=0;entryX=0.5;entryY=0;entryDx=0;entryDy=0;exitX=0.5;exitY=1;exitDx=0;exitDy=0;" edge="1" parent="1" source="yE31wyP4Al2Zmjlklze--10" target="yE31wyP4Al2Zmjlklze--14">
          <mxGeometry width="50" height="50" relative="1" as="geometry">
            <mxPoint x="440" y="100" as="sourcePoint" />
            <mxPoint x="220" y="180" as="targetPoint" />
          </mxGeometry>
        </mxCell>
        <mxCell id="yE31wyP4Al2Zmjlklze--25" value="" style="group" vertex="1" connectable="0" parent="1">
          <mxGeometry x="810" y="160" width="160" height="40" as="geometry" />
        </mxCell>
        <mxCell id="yE31wyP4Al2Zmjlklze--11" value="10.6.x.x/20" style="rounded=0;whiteSpace=wrap;html=1;fontSize=16;" vertex="1" parent="yE31wyP4Al2Zmjlklze--25">
          <mxGeometry x="40" width="120" height="40" as="geometry" />
        </mxCell>
        <mxCell id="yE31wyP4Al2Zmjlklze--24" value="G1" style="text;html=1;align=center;verticalAlign=middle;whiteSpace=wrap;rounded=0;fontSize=16;" vertex="1" parent="yE31wyP4Al2Zmjlklze--25">
          <mxGeometry width="40" height="40" as="geometry" />
        </mxCell>
        <mxCell id="yE31wyP4Al2Zmjlklze--33" value="" style="group" vertex="1" connectable="0" parent="1">
          <mxGeometry x="1020" y="280" width="160" height="40" as="geometry" />
        </mxCell>
        <mxCell id="yE31wyP4Al2Zmjlklze--34" value="10.6.x.x/21" style="rounded=0;whiteSpace=wrap;html=1;fontSize=16;" vertex="1" parent="yE31wyP4Al2Zmjlklze--33">
          <mxGeometry x="40" width="120" height="40" as="geometry" />
        </mxCell>
        <mxCell id="yE31wyP4Al2Zmjlklze--35" value="F2" style="text;html=1;align=center;verticalAlign=middle;whiteSpace=wrap;rounded=0;fontSize=16;" vertex="1" parent="yE31wyP4Al2Zmjlklze--33">
          <mxGeometry width="40" height="40" as="geometry" />
        </mxCell>
        <mxCell id="yE31wyP4Al2Zmjlklze--36" value="" style="endArrow=classic;html=1;rounded=0;entryX=0.5;entryY=0;entryDx=0;entryDy=0;exitX=0.5;exitY=1;exitDx=0;exitDy=0;" edge="1" parent="1" target="yE31wyP4Al2Zmjlklze--32" source="yE31wyP4Al2Zmjlklze--11">
          <mxGeometry width="50" height="50" relative="1" as="geometry">
            <mxPoint x="805" y="220" as="sourcePoint" />
            <mxPoint x="815" y="190" as="targetPoint" />
          </mxGeometry>
        </mxCell>
        <mxCell id="yE31wyP4Al2Zmjlklze--37" value="" style="endArrow=classic;html=1;rounded=0;entryX=0.5;entryY=0;entryDx=0;entryDy=0;exitX=0.5;exitY=1;exitDx=0;exitDy=0;" edge="1" parent="1" target="yE31wyP4Al2Zmjlklze--34" source="yE31wyP4Al2Zmjlklze--11">
          <mxGeometry width="50" height="50" relative="1" as="geometry">
            <mxPoint x="805" y="220" as="sourcePoint" />
            <mxPoint x="825" y="200" as="targetPoint" />
          </mxGeometry>
        </mxCell>
        <mxCell id="yE31wyP4Al2Zmjlklze--42" value="" style="group" vertex="1" connectable="0" parent="1">
          <mxGeometry x="620" y="280" width="160" height="40" as="geometry" />
        </mxCell>
        <mxCell id="yE31wyP4Al2Zmjlklze--32" value="10.6.x.x/21" style="rounded=0;whiteSpace=wrap;html=1;fontSize=16;" vertex="1" parent="yE31wyP4Al2Zmjlklze--42">
          <mxGeometry x="40" width="120" height="40" as="geometry" />
        </mxCell>
        <mxCell id="yE31wyP4Al2Zmjlklze--41" value="F1" style="text;html=1;align=center;verticalAlign=middle;whiteSpace=wrap;rounded=0;fontSize=16;" vertex="1" parent="yE31wyP4Al2Zmjlklze--42">
          <mxGeometry width="40" height="40" as="geometry" />
        </mxCell>
        <mxCell id="yE31wyP4Al2Zmjlklze--44" value="" style="group" vertex="1" connectable="0" parent="1">
          <mxGeometry x="-320" y="400" width="160" height="40" as="geometry" />
        </mxCell>
        <mxCell id="yE31wyP4Al2Zmjlklze--45" value="10.6.x.x/20" style="rounded=0;whiteSpace=wrap;html=1;fontSize=16;" vertex="1" parent="yE31wyP4Al2Zmjlklze--44">
          <mxGeometry x="40" width="120" height="40" as="geometry" />
        </mxCell>
        <mxCell id="yE31wyP4Al2Zmjlklze--46" value="F3" style="text;html=1;align=center;verticalAlign=middle;whiteSpace=wrap;rounded=0;fontSize=16;" vertex="1" parent="yE31wyP4Al2Zmjlklze--44">
          <mxGeometry width="40" height="40" as="geometry" />
        </mxCell>
        <mxCell id="yE31wyP4Al2Zmjlklze--47" value="" style="endArrow=classic;html=1;rounded=0;entryX=0.5;entryY=0;entryDx=0;entryDy=0;exitX=0.5;exitY=1;exitDx=0;exitDy=0;" edge="1" parent="1" target="yE31wyP4Al2Zmjlklze--50" source="yE31wyP4Al2Zmjlklze--15">
          <mxGeometry width="50" height="50" relative="1" as="geometry">
            <mxPoint x="-420" y="320" as="sourcePoint" />
            <mxPoint x="-415" y="310" as="targetPoint" />
          </mxGeometry>
        </mxCell>
        <mxCell id="yE31wyP4Al2Zmjlklze--48" value="" style="endArrow=classic;html=1;rounded=0;entryX=0.5;entryY=0;entryDx=0;entryDy=0;exitX=0.5;exitY=1;exitDx=0;exitDy=0;" edge="1" parent="1" target="yE31wyP4Al2Zmjlklze--45" source="yE31wyP4Al2Zmjlklze--15">
          <mxGeometry width="50" height="50" relative="1" as="geometry">
            <mxPoint x="-420" y="320" as="sourcePoint" />
            <mxPoint x="-405" y="320" as="targetPoint" />
          </mxGeometry>
        </mxCell>
        <mxCell id="yE31wyP4Al2Zmjlklze--52" value="" style="group" vertex="1" connectable="0" parent="1">
          <mxGeometry x="720" y="400" width="270" height="200" as="geometry" />
        </mxCell>
        <mxCell id="yE31wyP4Al2Zmjlklze--53" value="10.6.x.x/30" style="rounded=0;whiteSpace=wrap;html=1;fontSize=16;" vertex="1" parent="yE31wyP4Al2Zmjlklze--52">
          <mxGeometry x="40" width="120" height="40" as="geometry" />
        </mxCell>
        <mxCell id="yE31wyP4Al2Zmjlklze--54" value="A17" style="text;html=1;align=center;verticalAlign=middle;whiteSpace=wrap;rounded=0;fontSize=16;" vertex="1" parent="yE31wyP4Al2Zmjlklze--52">
          <mxGeometry width="40" height="40" as="geometry" />
        </mxCell>
        <mxCell id="yE31wyP4Al2Zmjlklze--60" value="" style="ellipse;whiteSpace=wrap;html=1;fillColor=none;" vertex="1" parent="yE31wyP4Al2Zmjlklze--52">
          <mxGeometry y="-40" width="170" height="120" as="geometry" />
        </mxCell>
        <mxCell id="yE31wyP4Al2Zmjlklze--61" value="2 Host" style="text;html=1;align=center;verticalAlign=middle;whiteSpace=wrap;rounded=0;fontSize=16;" vertex="1" parent="yE31wyP4Al2Zmjlklze--52">
          <mxGeometry x="55" y="40" width="60" height="30" as="geometry" />
        </mxCell>
        <mxCell id="yE31wyP4Al2Zmjlklze--128" value="" style="ellipse;whiteSpace=wrap;html=1;fillColor=none;" vertex="1" parent="yE31wyP4Al2Zmjlklze--52">
          <mxGeometry x="100" y="80" width="170" height="120" as="geometry" />
        </mxCell>
        <mxCell id="yE31wyP4Al2Zmjlklze--129" value="510 Host" style="text;html=1;align=center;verticalAlign=middle;whiteSpace=wrap;rounded=0;fontSize=16;" vertex="1" parent="yE31wyP4Al2Zmjlklze--52">
          <mxGeometry x="147.5" y="160" width="75" height="30" as="geometry" />
        </mxCell>
        <mxCell id="yE31wyP4Al2Zmjlklze--55" value="" style="endArrow=classic;html=1;rounded=0;entryX=0.5;entryY=0;entryDx=0;entryDy=0;exitX=0.5;exitY=1;exitDx=0;exitDy=0;" edge="1" parent="1" target="yE31wyP4Al2Zmjlklze--58" source="yE31wyP4Al2Zmjlklze--32">
          <mxGeometry width="50" height="50" relative="1" as="geometry">
            <mxPoint x="710" y="320" as="sourcePoint" />
            <mxPoint x="715" y="310" as="targetPoint" />
          </mxGeometry>
        </mxCell>
        <mxCell id="yE31wyP4Al2Zmjlklze--56" value="" style="endArrow=classic;html=1;rounded=0;entryX=0.5;entryY=0;entryDx=0;entryDy=0;exitX=0.5;exitY=1;exitDx=0;exitDy=0;" edge="1" parent="1" target="yE31wyP4Al2Zmjlklze--53" source="yE31wyP4Al2Zmjlklze--32">
          <mxGeometry width="50" height="50" relative="1" as="geometry">
            <mxPoint x="710" y="320" as="sourcePoint" />
            <mxPoint x="725" y="320" as="targetPoint" />
          </mxGeometry>
        </mxCell>
        <mxCell id="yE31wyP4Al2Zmjlklze--57" value="" style="group" vertex="1" connectable="0" parent="1">
          <mxGeometry x="520" y="400" width="160" height="40" as="geometry" />
        </mxCell>
        <mxCell id="yE31wyP4Al2Zmjlklze--58" value="10.6.x.x/22" style="rounded=0;whiteSpace=wrap;html=1;fontSize=16;" vertex="1" parent="yE31wyP4Al2Zmjlklze--57">
          <mxGeometry x="40" width="120" height="40" as="geometry" />
        </mxCell>
        <mxCell id="yE31wyP4Al2Zmjlklze--59" value="E1" style="text;html=1;align=center;verticalAlign=middle;whiteSpace=wrap;rounded=0;fontSize=16;" vertex="1" parent="yE31wyP4Al2Zmjlklze--57">
          <mxGeometry width="40" height="40" as="geometry" />
        </mxCell>
        <mxCell id="yE31wyP4Al2Zmjlklze--62" value="" style="group" vertex="1" connectable="0" parent="1">
          <mxGeometry x="1110" y="400" width="190" height="90" as="geometry" />
        </mxCell>
        <mxCell id="yE31wyP4Al2Zmjlklze--63" value="10.6.x.x/30" style="rounded=0;whiteSpace=wrap;html=1;fontSize=16;" vertex="1" parent="yE31wyP4Al2Zmjlklze--62">
          <mxGeometry x="60" width="120" height="40" as="geometry" />
        </mxCell>
        <mxCell id="yE31wyP4Al2Zmjlklze--64" value="A14" style="text;html=1;align=center;verticalAlign=middle;whiteSpace=wrap;rounded=0;fontSize=16;" vertex="1" parent="yE31wyP4Al2Zmjlklze--62">
          <mxGeometry x="20" width="40" height="40" as="geometry" />
        </mxCell>
        <mxCell id="yE31wyP4Al2Zmjlklze--66" value="2 Host" style="text;html=1;align=center;verticalAlign=middle;whiteSpace=wrap;rounded=0;fontSize=16;" vertex="1" parent="yE31wyP4Al2Zmjlklze--62">
          <mxGeometry x="75" y="40" width="60" height="30" as="geometry" />
        </mxCell>
        <mxCell id="yE31wyP4Al2Zmjlklze--67" value="" style="endArrow=classic;html=1;rounded=0;entryX=0.5;entryY=0;entryDx=0;entryDy=0;" edge="1" parent="1" target="yE31wyP4Al2Zmjlklze--70">
          <mxGeometry width="50" height="50" relative="1" as="geometry">
            <mxPoint x="1120" y="320" as="sourcePoint" />
            <mxPoint x="1105" y="310" as="targetPoint" />
          </mxGeometry>
        </mxCell>
        <mxCell id="yE31wyP4Al2Zmjlklze--68" value="" style="endArrow=classic;html=1;rounded=0;entryX=0.5;entryY=0;entryDx=0;entryDy=0;exitX=0.5;exitY=1;exitDx=0;exitDy=0;" edge="1" parent="1" target="yE31wyP4Al2Zmjlklze--63" source="yE31wyP4Al2Zmjlklze--34">
          <mxGeometry width="50" height="50" relative="1" as="geometry">
            <mxPoint x="1110" y="320" as="sourcePoint" />
            <mxPoint x="1115" y="320" as="targetPoint" />
          </mxGeometry>
        </mxCell>
        <mxCell id="yE31wyP4Al2Zmjlklze--69" value="" style="group" vertex="1" connectable="0" parent="1">
          <mxGeometry x="920" y="400" width="160" height="40" as="geometry" />
        </mxCell>
        <mxCell id="yE31wyP4Al2Zmjlklze--70" value="10.6.x.x/22" style="rounded=0;whiteSpace=wrap;html=1;fontSize=16;" vertex="1" parent="yE31wyP4Al2Zmjlklze--69">
          <mxGeometry x="40" width="120" height="40" as="geometry" />
        </mxCell>
        <mxCell id="yE31wyP4Al2Zmjlklze--71" value="E2" style="text;html=1;align=center;verticalAlign=middle;whiteSpace=wrap;rounded=0;fontSize=16;" vertex="1" parent="yE31wyP4Al2Zmjlklze--69">
          <mxGeometry width="40" height="40" as="geometry" />
        </mxCell>
        <mxCell id="yE31wyP4Al2Zmjlklze--65" value="" style="ellipse;whiteSpace=wrap;html=1;fillColor=none;" vertex="1" parent="1">
          <mxGeometry x="1130" y="360" width="170" height="120" as="geometry" />
        </mxCell>
        <mxCell id="yE31wyP4Al2Zmjlklze--78" value="" style="endArrow=classic;html=1;rounded=0;entryX=0.5;entryY=0;entryDx=0;entryDy=0;exitX=0.5;exitY=1;exitDx=0;exitDy=0;" edge="1" parent="1" target="yE31wyP4Al2Zmjlklze--81" source="yE31wyP4Al2Zmjlklze--45">
          <mxGeometry width="50" height="50" relative="1" as="geometry">
            <mxPoint x="-230" y="470" as="sourcePoint" />
            <mxPoint x="-225" y="430" as="targetPoint" />
          </mxGeometry>
        </mxCell>
        <mxCell id="yE31wyP4Al2Zmjlklze--79" value="" style="endArrow=classic;html=1;rounded=0;entryX=0.5;entryY=0;entryDx=0;entryDy=0;exitX=0.5;exitY=1;exitDx=0;exitDy=0;" edge="1" parent="1" target="yE31wyP4Al2Zmjlklze--103" source="yE31wyP4Al2Zmjlklze--45">
          <mxGeometry width="50" height="50" relative="1" as="geometry">
            <mxPoint x="-220" y="440" as="sourcePoint" />
            <mxPoint x="-120" y="517.5" as="targetPoint" />
          </mxGeometry>
        </mxCell>
        <mxCell id="yE31wyP4Al2Zmjlklze--80" value="" style="group" vertex="1" connectable="0" parent="1">
          <mxGeometry x="-410" y="520" width="160" height="40" as="geometry" />
        </mxCell>
        <mxCell id="yE31wyP4Al2Zmjlklze--81" value="10.6.x.x/21" style="rounded=0;whiteSpace=wrap;html=1;fontSize=16;" vertex="1" parent="yE31wyP4Al2Zmjlklze--80">
          <mxGeometry x="40" width="120" height="40" as="geometry" />
        </mxCell>
        <mxCell id="yE31wyP4Al2Zmjlklze--82" value="E3" style="text;html=1;align=center;verticalAlign=middle;whiteSpace=wrap;rounded=0;fontSize=16;" vertex="1" parent="yE31wyP4Al2Zmjlklze--80">
          <mxGeometry width="40" height="40" as="geometry" />
        </mxCell>
        <mxCell id="yE31wyP4Al2Zmjlklze--49" value="" style="group" vertex="1" connectable="0" parent="1">
          <mxGeometry x="-780" y="400" width="160" height="40" as="geometry" />
        </mxCell>
        <mxCell id="yE31wyP4Al2Zmjlklze--50" value="10.6.x.x/19" style="rounded=0;whiteSpace=wrap;html=1;fontSize=16;" vertex="1" parent="yE31wyP4Al2Zmjlklze--49">
          <mxGeometry x="40" width="120" height="40" as="geometry" />
        </mxCell>
        <mxCell id="yE31wyP4Al2Zmjlklze--51" value="F4" style="text;html=1;align=center;verticalAlign=middle;whiteSpace=wrap;rounded=0;fontSize=16;" vertex="1" parent="yE31wyP4Al2Zmjlklze--49">
          <mxGeometry width="40" height="40" as="geometry" />
        </mxCell>
        <mxCell id="yE31wyP4Al2Zmjlklze--84" value="10.6.x.x/30" style="rounded=0;whiteSpace=wrap;html=1;fontSize=16;" vertex="1" parent="1">
          <mxGeometry x="-640" y="520" width="120" height="40" as="geometry" />
        </mxCell>
        <mxCell id="yE31wyP4Al2Zmjlklze--85" value="A4" style="text;html=1;align=center;verticalAlign=middle;whiteSpace=wrap;rounded=0;fontSize=16;" vertex="1" parent="1">
          <mxGeometry x="-680" y="520" width="40" height="40" as="geometry" />
        </mxCell>
        <mxCell id="yE31wyP4Al2Zmjlklze--86" value="" style="ellipse;whiteSpace=wrap;html=1;fillColor=none;" vertex="1" parent="1">
          <mxGeometry x="-680" y="480" width="170" height="120" as="geometry" />
        </mxCell>
        <mxCell id="yE31wyP4Al2Zmjlklze--87" value="2 Host" style="text;html=1;align=center;verticalAlign=middle;whiteSpace=wrap;rounded=0;fontSize=16;" vertex="1" parent="1">
          <mxGeometry x="-625" y="560" width="60" height="30" as="geometry" />
        </mxCell>
        <mxCell id="yE31wyP4Al2Zmjlklze--88" value="" style="endArrow=classic;html=1;rounded=0;entryX=0.5;entryY=0;entryDx=0;entryDy=0;exitX=0.5;exitY=1;exitDx=0;exitDy=0;" edge="1" parent="1" target="yE31wyP4Al2Zmjlklze--91" source="yE31wyP4Al2Zmjlklze--50">
          <mxGeometry width="50" height="50" relative="1" as="geometry">
            <mxPoint x="-680" y="460" as="sourcePoint" />
            <mxPoint x="-685" y="430" as="targetPoint" />
          </mxGeometry>
        </mxCell>
        <mxCell id="yE31wyP4Al2Zmjlklze--89" value="" style="endArrow=classic;html=1;rounded=0;entryX=0.5;entryY=0;entryDx=0;entryDy=0;exitX=0.5;exitY=1;exitDx=0;exitDy=0;" edge="1" parent="1" target="yE31wyP4Al2Zmjlklze--84" source="yE31wyP4Al2Zmjlklze--50">
          <mxGeometry width="50" height="50" relative="1" as="geometry">
            <mxPoint x="-680" y="440" as="sourcePoint" />
            <mxPoint x="-675" y="440" as="targetPoint" />
          </mxGeometry>
        </mxCell>
        <mxCell id="yE31wyP4Al2Zmjlklze--90" value="" style="group" vertex="1" connectable="0" parent="1">
          <mxGeometry x="-880" y="520" width="160" height="40" as="geometry" />
        </mxCell>
        <mxCell id="yE31wyP4Al2Zmjlklze--91" value="10.6.x.x/20" style="rounded=0;whiteSpace=wrap;html=1;fontSize=16;" vertex="1" parent="yE31wyP4Al2Zmjlklze--90">
          <mxGeometry x="40" width="120" height="40" as="geometry" />
        </mxCell>
        <mxCell id="yE31wyP4Al2Zmjlklze--92" value="E4" style="text;html=1;align=center;verticalAlign=middle;whiteSpace=wrap;rounded=0;fontSize=16;" vertex="1" parent="yE31wyP4Al2Zmjlklze--90">
          <mxGeometry width="40" height="40" as="geometry" />
        </mxCell>
        <mxCell id="yE31wyP4Al2Zmjlklze--93" value="" style="group" vertex="1" connectable="0" parent="1">
          <mxGeometry x="300" y="400" width="190" height="90" as="geometry" />
        </mxCell>
        <mxCell id="yE31wyP4Al2Zmjlklze--94" value="10.6.x.x/30" style="rounded=0;whiteSpace=wrap;html=1;fontSize=16;" vertex="1" parent="yE31wyP4Al2Zmjlklze--93">
          <mxGeometry x="40" width="120" height="40" as="geometry" />
        </mxCell>
        <mxCell id="yE31wyP4Al2Zmjlklze--95" value="A1" style="text;html=1;align=center;verticalAlign=middle;whiteSpace=wrap;rounded=0;fontSize=16;" vertex="1" parent="yE31wyP4Al2Zmjlklze--93">
          <mxGeometry width="40" height="40" as="geometry" />
        </mxCell>
        <mxCell id="yE31wyP4Al2Zmjlklze--97" value="2 Host" style="text;html=1;align=center;verticalAlign=middle;whiteSpace=wrap;rounded=0;fontSize=16;" vertex="1" parent="yE31wyP4Al2Zmjlklze--93">
          <mxGeometry x="55" y="40" width="60" height="30" as="geometry" />
        </mxCell>
        <mxCell id="yE31wyP4Al2Zmjlklze--98" value="" style="endArrow=classic;html=1;rounded=0;entryX=0.5;entryY=0;entryDx=0;entryDy=0;exitX=0.5;exitY=1;exitDx=0;exitDy=0;" edge="1" parent="1" target="yE31wyP4Al2Zmjlklze--101">
          <mxGeometry width="50" height="50" relative="1" as="geometry">
            <mxPoint x="300" y="320" as="sourcePoint" />
            <mxPoint x="295" y="310" as="targetPoint" />
          </mxGeometry>
        </mxCell>
        <mxCell id="yE31wyP4Al2Zmjlklze--99" value="" style="endArrow=classic;html=1;rounded=0;entryX=0.5;entryY=0;entryDx=0;entryDy=0;exitX=0.5;exitY=1;exitDx=0;exitDy=0;" edge="1" parent="1" target="yE31wyP4Al2Zmjlklze--94">
          <mxGeometry width="50" height="50" relative="1" as="geometry">
            <mxPoint x="300" y="320" as="sourcePoint" />
            <mxPoint x="305" y="320" as="targetPoint" />
          </mxGeometry>
        </mxCell>
        <mxCell id="yE31wyP4Al2Zmjlklze--100" value="" style="group" vertex="1" connectable="0" parent="1">
          <mxGeometry x="100" y="400" width="160" height="40" as="geometry" />
        </mxCell>
        <mxCell id="yE31wyP4Al2Zmjlklze--101" value="10.6.x.x/22" style="rounded=0;whiteSpace=wrap;html=1;fontSize=16;" vertex="1" parent="yE31wyP4Al2Zmjlklze--100">
          <mxGeometry x="40" width="120" height="40" as="geometry" />
        </mxCell>
        <mxCell id="yE31wyP4Al2Zmjlklze--102" value="E5" style="text;html=1;align=center;verticalAlign=middle;whiteSpace=wrap;rounded=0;fontSize=16;" vertex="1" parent="yE31wyP4Al2Zmjlklze--100">
          <mxGeometry width="40" height="40" as="geometry" />
        </mxCell>
        <mxCell id="yE31wyP4Al2Zmjlklze--96" value="" style="ellipse;whiteSpace=wrap;html=1;fillColor=none;" vertex="1" parent="1">
          <mxGeometry x="300" y="360" width="170" height="120" as="geometry" />
        </mxCell>
        <mxCell id="yE31wyP4Al2Zmjlklze--103" value="10.6.x.x/30" style="rounded=0;whiteSpace=wrap;html=1;fontSize=16;" vertex="1" parent="1">
          <mxGeometry x="-170" y="520" width="120" height="40" as="geometry" />
        </mxCell>
        <mxCell id="yE31wyP4Al2Zmjlklze--104" value="A7" style="text;html=1;align=center;verticalAlign=middle;whiteSpace=wrap;rounded=0;fontSize=16;" vertex="1" parent="1">
          <mxGeometry x="-210" y="520" width="40" height="40" as="geometry" />
        </mxCell>
        <mxCell id="yE31wyP4Al2Zmjlklze--105" value="" style="ellipse;whiteSpace=wrap;html=1;fillColor=none;" vertex="1" parent="1">
          <mxGeometry x="-210" y="480" width="170" height="120" as="geometry" />
        </mxCell>
        <mxCell id="yE31wyP4Al2Zmjlklze--106" value="2 Host" style="text;html=1;align=center;verticalAlign=middle;whiteSpace=wrap;rounded=0;fontSize=16;" vertex="1" parent="1">
          <mxGeometry x="-155" y="560" width="60" height="30" as="geometry" />
        </mxCell>
        <mxCell id="yE31wyP4Al2Zmjlklze--108" value="" style="group" vertex="1" connectable="0" parent="1">
          <mxGeometry x="620" y="520" width="190" height="90" as="geometry" />
        </mxCell>
        <mxCell id="yE31wyP4Al2Zmjlklze--109" value="10.6.x.x/30" style="rounded=0;whiteSpace=wrap;html=1;fontSize=16;" vertex="1" parent="yE31wyP4Al2Zmjlklze--108">
          <mxGeometry x="40" width="120" height="40" as="geometry" />
        </mxCell>
        <mxCell id="yE31wyP4Al2Zmjlklze--110" value="A21" style="text;html=1;align=center;verticalAlign=middle;whiteSpace=wrap;rounded=0;fontSize=16;" vertex="1" parent="yE31wyP4Al2Zmjlklze--108">
          <mxGeometry width="40" height="40" as="geometry" />
        </mxCell>
        <mxCell id="yE31wyP4Al2Zmjlklze--112" value="2 Host" style="text;html=1;align=center;verticalAlign=middle;whiteSpace=wrap;rounded=0;fontSize=16;" vertex="1" parent="yE31wyP4Al2Zmjlklze--108">
          <mxGeometry x="55" y="40" width="60" height="30" as="geometry" />
        </mxCell>
        <mxCell id="yE31wyP4Al2Zmjlklze--113" value="" style="endArrow=classic;html=1;rounded=0;entryX=0.5;entryY=0;entryDx=0;entryDy=0;exitX=0.5;exitY=1;exitDx=0;exitDy=0;" edge="1" parent="1" target="yE31wyP4Al2Zmjlklze--116" source="yE31wyP4Al2Zmjlklze--58">
          <mxGeometry width="50" height="50" relative="1" as="geometry">
            <mxPoint x="600" y="470" as="sourcePoint" />
            <mxPoint x="615" y="430" as="targetPoint" />
          </mxGeometry>
        </mxCell>
        <mxCell id="yE31wyP4Al2Zmjlklze--114" value="" style="endArrow=classic;html=1;rounded=0;entryX=0.5;entryY=0;entryDx=0;entryDy=0;exitX=0.5;exitY=1;exitDx=0;exitDy=0;" edge="1" parent="1" target="yE31wyP4Al2Zmjlklze--109" source="yE31wyP4Al2Zmjlklze--58">
          <mxGeometry width="50" height="50" relative="1" as="geometry">
            <mxPoint x="630" y="460" as="sourcePoint" />
            <mxPoint x="625" y="440" as="targetPoint" />
          </mxGeometry>
        </mxCell>
        <mxCell id="yE31wyP4Al2Zmjlklze--115" value="" style="group" vertex="1" connectable="0" parent="1">
          <mxGeometry x="420" y="520" width="160" height="40" as="geometry" />
        </mxCell>
        <mxCell id="yE31wyP4Al2Zmjlklze--116" value="10.6.x.x/23" style="rounded=0;whiteSpace=wrap;html=1;fontSize=16;" vertex="1" parent="yE31wyP4Al2Zmjlklze--115">
          <mxGeometry x="40" width="120" height="40" as="geometry" />
        </mxCell>
        <mxCell id="yE31wyP4Al2Zmjlklze--117" value="D1" style="text;html=1;align=center;verticalAlign=middle;whiteSpace=wrap;rounded=0;fontSize=16;" vertex="1" parent="yE31wyP4Al2Zmjlklze--115">
          <mxGeometry width="40" height="40" as="geometry" />
        </mxCell>
        <mxCell id="yE31wyP4Al2Zmjlklze--111" value="" style="ellipse;whiteSpace=wrap;html=1;fillColor=none;" vertex="1" parent="1">
          <mxGeometry x="620" y="480" width="170" height="120" as="geometry" />
        </mxCell>
        <mxCell id="yE31wyP4Al2Zmjlklze--118" value="" style="group" vertex="1" connectable="0" parent="1">
          <mxGeometry x="1020" y="520" width="190" height="90" as="geometry" />
        </mxCell>
        <mxCell id="yE31wyP4Al2Zmjlklze--119" value="10.6.x.x/25" style="rounded=0;whiteSpace=wrap;html=1;fontSize=16;" vertex="1" parent="yE31wyP4Al2Zmjlklze--118">
          <mxGeometry x="40" width="120" height="40" as="geometry" />
        </mxCell>
        <mxCell id="yE31wyP4Al2Zmjlklze--120" value="A16" style="text;html=1;align=center;verticalAlign=middle;whiteSpace=wrap;rounded=0;fontSize=16;" vertex="1" parent="yE31wyP4Al2Zmjlklze--118">
          <mxGeometry width="40" height="40" as="geometry" />
        </mxCell>
        <mxCell id="yE31wyP4Al2Zmjlklze--123" value="" style="endArrow=classic;html=1;rounded=0;entryX=0.5;entryY=0;entryDx=0;entryDy=0;exitX=0.5;exitY=1;exitDx=0;exitDy=0;" edge="1" parent="1" target="yE31wyP4Al2Zmjlklze--126" source="yE31wyP4Al2Zmjlklze--70">
          <mxGeometry width="50" height="50" relative="1" as="geometry">
            <mxPoint x="1020" y="470" as="sourcePoint" />
            <mxPoint x="1015" y="430" as="targetPoint" />
          </mxGeometry>
        </mxCell>
        <mxCell id="yE31wyP4Al2Zmjlklze--124" value="" style="endArrow=classic;html=1;rounded=0;entryX=0.5;entryY=0;entryDx=0;entryDy=0;exitX=0.5;exitY=1;exitDx=0;exitDy=0;" edge="1" parent="1" target="yE31wyP4Al2Zmjlklze--119" source="yE31wyP4Al2Zmjlklze--70">
          <mxGeometry width="50" height="50" relative="1" as="geometry">
            <mxPoint x="1030" y="470" as="sourcePoint" />
            <mxPoint x="1025" y="440" as="targetPoint" />
          </mxGeometry>
        </mxCell>
        <mxCell id="yE31wyP4Al2Zmjlklze--125" value="" style="group" vertex="1" connectable="0" parent="1">
          <mxGeometry x="820" y="520" width="160" height="40" as="geometry" />
        </mxCell>
        <mxCell id="yE31wyP4Al2Zmjlklze--126" value="10.6.x.x/23" style="rounded=0;whiteSpace=wrap;html=1;fontSize=16;" vertex="1" parent="yE31wyP4Al2Zmjlklze--125">
          <mxGeometry x="40" width="120" height="40" as="geometry" />
        </mxCell>
        <mxCell id="yE31wyP4Al2Zmjlklze--127" value="A15" style="text;html=1;align=center;verticalAlign=middle;whiteSpace=wrap;rounded=0;fontSize=16;" vertex="1" parent="yE31wyP4Al2Zmjlklze--125">
          <mxGeometry width="40" height="40" as="geometry" />
        </mxCell>
        <mxCell id="yE31wyP4Al2Zmjlklze--121" value="" style="ellipse;whiteSpace=wrap;html=1;fillColor=none;" vertex="1" parent="1">
          <mxGeometry x="1020" y="480" width="170" height="120" as="geometry" />
        </mxCell>
        <mxCell id="yE31wyP4Al2Zmjlklze--130" value="64 Host" style="text;html=1;align=center;verticalAlign=middle;whiteSpace=wrap;rounded=0;fontSize=16;" vertex="1" parent="1">
          <mxGeometry x="1075" y="560" width="60" height="30" as="geometry" />
        </mxCell>
        <mxCell id="yE31wyP4Al2Zmjlklze--131" value="" style="endArrow=classic;html=1;rounded=0;entryX=0.5;entryY=0;entryDx=0;entryDy=0;exitX=0.5;exitY=1;exitDx=0;exitDy=0;" edge="1" parent="1" target="yE31wyP4Al2Zmjlklze--134" source="yE31wyP4Al2Zmjlklze--81">
          <mxGeometry width="50" height="50" relative="1" as="geometry">
            <mxPoint x="-310" y="580" as="sourcePoint" />
            <mxPoint x="-315" y="550" as="targetPoint" />
          </mxGeometry>
        </mxCell>
        <mxCell id="yE31wyP4Al2Zmjlklze--132" value="" style="endArrow=classic;html=1;rounded=0;entryX=0.5;entryY=0;entryDx=0;entryDy=0;exitX=0.5;exitY=1;exitDx=0;exitDy=0;" edge="1" parent="1" target="yE31wyP4Al2Zmjlklze--136" source="yE31wyP4Al2Zmjlklze--81">
          <mxGeometry width="50" height="50" relative="1" as="geometry">
            <mxPoint x="-300" y="580" as="sourcePoint" />
            <mxPoint x="-210" y="637.5" as="targetPoint" />
          </mxGeometry>
        </mxCell>
        <mxCell id="yE31wyP4Al2Zmjlklze--133" value="" style="group" vertex="1" connectable="0" parent="1">
          <mxGeometry x="-560" y="640" width="160" height="40" as="geometry" />
        </mxCell>
        <mxCell id="yE31wyP4Al2Zmjlklze--134" value="10.6.x.x/22" style="rounded=0;whiteSpace=wrap;html=1;fontSize=16;" vertex="1" parent="yE31wyP4Al2Zmjlklze--133">
          <mxGeometry x="40" width="120" height="40" as="geometry" />
        </mxCell>
        <mxCell id="yE31wyP4Al2Zmjlklze--135" value="D2" style="text;html=1;align=center;verticalAlign=middle;whiteSpace=wrap;rounded=0;fontSize=16;" vertex="1" parent="yE31wyP4Al2Zmjlklze--133">
          <mxGeometry width="40" height="40" as="geometry" />
        </mxCell>
        <mxCell id="yE31wyP4Al2Zmjlklze--142" value="" style="group" vertex="1" connectable="0" parent="1">
          <mxGeometry x="-170" y="640" width="160" height="40" as="geometry" />
        </mxCell>
        <mxCell id="yE31wyP4Al2Zmjlklze--136" value="10.6.x.x/25" style="rounded=0;whiteSpace=wrap;html=1;fontSize=16;" vertex="1" parent="yE31wyP4Al2Zmjlklze--142">
          <mxGeometry x="40" width="120" height="40" as="geometry" />
        </mxCell>
        <mxCell id="yE31wyP4Al2Zmjlklze--137" value="D3" style="text;html=1;align=center;verticalAlign=middle;whiteSpace=wrap;rounded=0;fontSize=16;" vertex="1" parent="yE31wyP4Al2Zmjlklze--142">
          <mxGeometry width="40" height="40" as="geometry" />
        </mxCell>
        <mxCell id="yE31wyP4Al2Zmjlklze--143" value="" style="ellipse;whiteSpace=wrap;html=1;fillColor=none;" vertex="1" parent="1">
          <mxGeometry x="-980" y="600" width="170" height="120" as="geometry" />
        </mxCell>
        <mxCell id="yE31wyP4Al2Zmjlklze--144" value="2046 Host" style="text;html=1;align=center;verticalAlign=middle;whiteSpace=wrap;rounded=0;fontSize=16;" vertex="1" parent="1">
          <mxGeometry x="-932.5" y="680" width="75" height="30" as="geometry" />
        </mxCell>
        <mxCell id="yE31wyP4Al2Zmjlklze--145" value="" style="group" vertex="1" connectable="0" parent="1">
          <mxGeometry x="-780" y="640" width="190" height="90" as="geometry" />
        </mxCell>
        <mxCell id="yE31wyP4Al2Zmjlklze--146" value="10.6.x.x/30" style="rounded=0;whiteSpace=wrap;html=1;fontSize=16;" vertex="1" parent="yE31wyP4Al2Zmjlklze--145">
          <mxGeometry x="40" width="120" height="40" as="geometry" />
        </mxCell>
        <mxCell id="yE31wyP4Al2Zmjlklze--147" value="A6" style="text;html=1;align=center;verticalAlign=middle;whiteSpace=wrap;rounded=0;fontSize=16;" vertex="1" parent="yE31wyP4Al2Zmjlklze--145">
          <mxGeometry width="40" height="40" as="geometry" />
        </mxCell>
        <mxCell id="yE31wyP4Al2Zmjlklze--148" value="" style="endArrow=classic;html=1;rounded=0;entryX=0.5;entryY=0;entryDx=0;entryDy=0;exitX=0.5;exitY=1;exitDx=0;exitDy=0;" edge="1" parent="1" target="yE31wyP4Al2Zmjlklze--151" source="yE31wyP4Al2Zmjlklze--91">
          <mxGeometry width="50" height="50" relative="1" as="geometry">
            <mxPoint x="-780" y="580" as="sourcePoint" />
            <mxPoint x="-785" y="550" as="targetPoint" />
          </mxGeometry>
        </mxCell>
        <mxCell id="yE31wyP4Al2Zmjlklze--149" value="" style="endArrow=classic;html=1;rounded=0;entryX=0.5;entryY=0;entryDx=0;entryDy=0;exitX=0.5;exitY=1;exitDx=0;exitDy=0;" edge="1" parent="1" target="yE31wyP4Al2Zmjlklze--146" source="yE31wyP4Al2Zmjlklze--91">
          <mxGeometry width="50" height="50" relative="1" as="geometry">
            <mxPoint x="-780" y="580" as="sourcePoint" />
            <mxPoint x="-775" y="560" as="targetPoint" />
          </mxGeometry>
        </mxCell>
        <mxCell id="yE31wyP4Al2Zmjlklze--150" value="" style="group" vertex="1" connectable="0" parent="1">
          <mxGeometry x="-980" y="640" width="160" height="40" as="geometry" />
        </mxCell>
        <mxCell id="yE31wyP4Al2Zmjlklze--151" value="10.6.x.x/21" style="rounded=0;whiteSpace=wrap;html=1;fontSize=16;" vertex="1" parent="yE31wyP4Al2Zmjlklze--150">
          <mxGeometry x="40" width="120" height="40" as="geometry" />
        </mxCell>
        <mxCell id="yE31wyP4Al2Zmjlklze--152" value="A5" style="text;html=1;align=center;verticalAlign=middle;whiteSpace=wrap;rounded=0;fontSize=16;" vertex="1" parent="yE31wyP4Al2Zmjlklze--150">
          <mxGeometry width="40" height="40" as="geometry" />
        </mxCell>
        <mxCell id="yE31wyP4Al2Zmjlklze--153" value="" style="ellipse;whiteSpace=wrap;html=1;fillColor=none;" vertex="1" parent="1">
          <mxGeometry x="-780" y="600" width="170" height="120" as="geometry" />
        </mxCell>
        <mxCell id="yE31wyP4Al2Zmjlklze--154" value="2 Host" style="text;html=1;align=center;verticalAlign=middle;whiteSpace=wrap;rounded=0;fontSize=16;" vertex="1" parent="1">
          <mxGeometry x="-725" y="680" width="60" height="30" as="geometry" />
        </mxCell>
        <mxCell id="yE31wyP4Al2Zmjlklze--155" value="" style="ellipse;whiteSpace=wrap;html=1;fillColor=none;" vertex="1" parent="1">
          <mxGeometry x="-5" y="480" width="170" height="120" as="geometry" />
        </mxCell>
        <mxCell id="yE31wyP4Al2Zmjlklze--156" value="345 Host" style="text;html=1;align=center;verticalAlign=middle;whiteSpace=wrap;rounded=0;fontSize=16;" vertex="1" parent="1">
          <mxGeometry x="42.5" y="560" width="75" height="30" as="geometry" />
        </mxCell>
        <mxCell id="yE31wyP4Al2Zmjlklze--157" value="" style="group" vertex="1" connectable="0" parent="1">
          <mxGeometry x="340" y="690" width="190" height="90" as="geometry" />
        </mxCell>
        <mxCell id="yE31wyP4Al2Zmjlklze--158" value="10.6.x.x/27" style="rounded=0;whiteSpace=wrap;html=1;fontSize=16;" vertex="1" parent="yE31wyP4Al2Zmjlklze--157">
          <mxGeometry x="-105" y="-170" width="120" height="40" as="geometry" />
        </mxCell>
        <mxCell id="yE31wyP4Al2Zmjlklze--159" value="A3" style="text;html=1;align=center;verticalAlign=middle;whiteSpace=wrap;rounded=0;fontSize=16;" vertex="1" parent="yE31wyP4Al2Zmjlklze--157">
          <mxGeometry x="-145" y="-170" width="40" height="40" as="geometry" />
        </mxCell>
        <mxCell id="yE31wyP4Al2Zmjlklze--160" value="" style="endArrow=classic;html=1;rounded=0;entryX=0.5;entryY=0;entryDx=0;entryDy=0;exitX=0.5;exitY=1;exitDx=0;exitDy=0;" edge="1" parent="1" target="yE31wyP4Al2Zmjlklze--163">
          <mxGeometry width="50" height="50" relative="1" as="geometry">
            <mxPoint x="195" y="440" as="sourcePoint" />
            <mxPoint x="190" y="430" as="targetPoint" />
          </mxGeometry>
        </mxCell>
        <mxCell id="yE31wyP4Al2Zmjlklze--161" value="" style="endArrow=classic;html=1;rounded=0;entryX=0.5;entryY=0;entryDx=0;entryDy=0;exitX=0.5;exitY=1;exitDx=0;exitDy=0;" edge="1" parent="1" target="yE31wyP4Al2Zmjlklze--158">
          <mxGeometry width="50" height="50" relative="1" as="geometry">
            <mxPoint x="195" y="440" as="sourcePoint" />
            <mxPoint x="200" y="440" as="targetPoint" />
          </mxGeometry>
        </mxCell>
        <mxCell id="yE31wyP4Al2Zmjlklze--162" value="" style="group" vertex="1" connectable="0" parent="1">
          <mxGeometry x="-5" y="520" width="160" height="40" as="geometry" />
        </mxCell>
        <mxCell id="yE31wyP4Al2Zmjlklze--163" value="10.6.x.x/23" style="rounded=0;whiteSpace=wrap;html=1;fontSize=16;" vertex="1" parent="yE31wyP4Al2Zmjlklze--162">
          <mxGeometry x="40" width="120" height="40" as="geometry" />
        </mxCell>
        <mxCell id="yE31wyP4Al2Zmjlklze--164" value="A2" style="text;html=1;align=center;verticalAlign=middle;whiteSpace=wrap;rounded=0;fontSize=16;" vertex="1" parent="yE31wyP4Al2Zmjlklze--162">
          <mxGeometry width="40" height="40" as="geometry" />
        </mxCell>
        <mxCell id="yE31wyP4Al2Zmjlklze--165" value="" style="ellipse;whiteSpace=wrap;html=1;fillColor=none;" vertex="1" parent="1">
          <mxGeometry x="195" y="480" width="170" height="120" as="geometry" />
        </mxCell>
        <mxCell id="yE31wyP4Al2Zmjlklze--166" value="16 Host" style="text;html=1;align=center;verticalAlign=middle;whiteSpace=wrap;rounded=0;fontSize=16;" vertex="1" parent="1">
          <mxGeometry x="250" y="560" width="60" height="30" as="geometry" />
        </mxCell>
        <mxCell id="yE31wyP4Al2Zmjlklze--167" value="10.6.x.x/30" style="rounded=0;whiteSpace=wrap;html=1;fontSize=16;" vertex="1" parent="1">
          <mxGeometry x="560" y="640" width="120" height="40" as="geometry" />
        </mxCell>
        <mxCell id="yE31wyP4Al2Zmjlklze--168" value="A18" style="text;html=1;align=center;verticalAlign=middle;whiteSpace=wrap;rounded=0;fontSize=16;" vertex="1" parent="1">
          <mxGeometry x="520" y="640" width="40" height="40" as="geometry" />
        </mxCell>
        <mxCell id="yE31wyP4Al2Zmjlklze--169" value="2 Host" style="text;html=1;align=center;verticalAlign=middle;whiteSpace=wrap;rounded=0;fontSize=16;" vertex="1" parent="1">
          <mxGeometry x="575" y="680" width="60" height="30" as="geometry" />
        </mxCell>
        <mxCell id="yE31wyP4Al2Zmjlklze--170" value="" style="endArrow=classic;html=1;rounded=0;entryX=0.5;entryY=0;entryDx=0;entryDy=0;exitX=0.5;exitY=1;exitDx=0;exitDy=0;" edge="1" parent="1" target="yE31wyP4Al2Zmjlklze--173" source="yE31wyP4Al2Zmjlklze--116">
          <mxGeometry width="50" height="50" relative="1" as="geometry">
            <mxPoint x="510" y="580" as="sourcePoint" />
            <mxPoint x="515" y="550" as="targetPoint" />
          </mxGeometry>
        </mxCell>
        <mxCell id="yE31wyP4Al2Zmjlklze--171" value="" style="endArrow=classic;html=1;rounded=0;entryX=0.5;entryY=0;entryDx=0;entryDy=0;exitX=0.5;exitY=1;exitDx=0;exitDy=0;" edge="1" parent="1" target="yE31wyP4Al2Zmjlklze--167" source="yE31wyP4Al2Zmjlklze--116">
          <mxGeometry width="50" height="50" relative="1" as="geometry">
            <mxPoint x="520" y="570" as="sourcePoint" />
            <mxPoint x="525" y="560" as="targetPoint" />
          </mxGeometry>
        </mxCell>
        <mxCell id="yE31wyP4Al2Zmjlklze--172" value="" style="group" vertex="1" connectable="0" parent="1">
          <mxGeometry x="320" y="640" width="160" height="40" as="geometry" />
        </mxCell>
        <mxCell id="yE31wyP4Al2Zmjlklze--173" value="10.6.x.x/24" style="rounded=0;whiteSpace=wrap;html=1;fontSize=16;" vertex="1" parent="yE31wyP4Al2Zmjlklze--172">
          <mxGeometry x="40" width="120" height="40" as="geometry" />
        </mxCell>
        <mxCell id="yE31wyP4Al2Zmjlklze--174" value="B1" style="text;html=1;align=center;verticalAlign=middle;whiteSpace=wrap;rounded=0;fontSize=16;" vertex="1" parent="yE31wyP4Al2Zmjlklze--172">
          <mxGeometry width="40" height="40" as="geometry" />
        </mxCell>
        <mxCell id="yE31wyP4Al2Zmjlklze--175" value="" style="ellipse;whiteSpace=wrap;html=1;fillColor=none;" vertex="1" parent="1">
          <mxGeometry x="520" y="600" width="170" height="120" as="geometry" />
        </mxCell>
        <mxCell id="yE31wyP4Al2Zmjlklze--197" value="" style="ellipse;whiteSpace=wrap;html=1;fillColor=none;" vertex="1" parent="1">
          <mxGeometry x="-660" y="720" width="170" height="120" as="geometry" />
        </mxCell>
        <mxCell id="yE31wyP4Al2Zmjlklze--198" value="444 Host" style="text;html=1;align=center;verticalAlign=middle;whiteSpace=wrap;rounded=0;fontSize=16;" vertex="1" parent="1">
          <mxGeometry x="-612.5" y="800" width="75" height="30" as="geometry" />
        </mxCell>
        <mxCell id="yE31wyP4Al2Zmjlklze--199" value="" style="group" vertex="1" connectable="0" parent="1">
          <mxGeometry x="-460" y="760" width="190" height="90" as="geometry" />
        </mxCell>
        <mxCell id="yE31wyP4Al2Zmjlklze--200" value="10.6.x.x/30" style="rounded=0;whiteSpace=wrap;html=1;fontSize=16;" vertex="1" parent="yE31wyP4Al2Zmjlklze--199">
          <mxGeometry x="40" width="120" height="40" as="geometry" />
        </mxCell>
        <mxCell id="yE31wyP4Al2Zmjlklze--201" value="A12" style="text;html=1;align=center;verticalAlign=middle;whiteSpace=wrap;rounded=0;fontSize=16;" vertex="1" parent="yE31wyP4Al2Zmjlklze--199">
          <mxGeometry width="40" height="40" as="geometry" />
        </mxCell>
        <mxCell id="yE31wyP4Al2Zmjlklze--202" value="" style="endArrow=classic;html=1;rounded=0;entryX=0.5;entryY=0;entryDx=0;entryDy=0;exitX=0.5;exitY=1;exitDx=0;exitDy=0;" edge="1" parent="1" target="yE31wyP4Al2Zmjlklze--205" source="yE31wyP4Al2Zmjlklze--134">
          <mxGeometry width="50" height="50" relative="1" as="geometry">
            <mxPoint x="-480" y="700" as="sourcePoint" />
            <mxPoint x="-465" y="670" as="targetPoint" />
          </mxGeometry>
        </mxCell>
        <mxCell id="yE31wyP4Al2Zmjlklze--203" value="" style="endArrow=classic;html=1;rounded=0;entryX=0.5;entryY=0;entryDx=0;entryDy=0;exitX=0.5;exitY=1;exitDx=0;exitDy=0;" edge="1" parent="1" target="yE31wyP4Al2Zmjlklze--200" source="yE31wyP4Al2Zmjlklze--134">
          <mxGeometry width="50" height="50" relative="1" as="geometry">
            <mxPoint x="-440" y="700" as="sourcePoint" />
            <mxPoint x="-455" y="680" as="targetPoint" />
          </mxGeometry>
        </mxCell>
        <mxCell id="yE31wyP4Al2Zmjlklze--204" value="" style="group" vertex="1" connectable="0" parent="1">
          <mxGeometry x="-660" y="760" width="160" height="40" as="geometry" />
        </mxCell>
        <mxCell id="yE31wyP4Al2Zmjlklze--205" value="10.6.x.x/23" style="rounded=0;whiteSpace=wrap;html=1;fontSize=16;" vertex="1" parent="yE31wyP4Al2Zmjlklze--204">
          <mxGeometry x="40" width="120" height="40" as="geometry" />
        </mxCell>
        <mxCell id="yE31wyP4Al2Zmjlklze--206" value="A13" style="text;html=1;align=center;verticalAlign=middle;whiteSpace=wrap;rounded=0;fontSize=16;" vertex="1" parent="yE31wyP4Al2Zmjlklze--204">
          <mxGeometry width="40" height="40" as="geometry" />
        </mxCell>
        <mxCell id="yE31wyP4Al2Zmjlklze--207" value="" style="ellipse;whiteSpace=wrap;html=1;fillColor=none;" vertex="1" parent="1">
          <mxGeometry x="-460" y="720" width="170" height="120" as="geometry" />
        </mxCell>
        <mxCell id="yE31wyP4Al2Zmjlklze--208" value="2 Host" style="text;html=1;align=center;verticalAlign=middle;whiteSpace=wrap;rounded=0;fontSize=16;" vertex="1" parent="1">
          <mxGeometry x="-405" y="800" width="60" height="30" as="geometry" />
        </mxCell>
        <mxCell id="yE31wyP4Al2Zmjlklze--219" value="10.6.x.x/30" style="rounded=0;whiteSpace=wrap;html=1;fontSize=16;" vertex="1" parent="1">
          <mxGeometry x="-30" y="760" width="120" height="40" as="geometry" />
        </mxCell>
        <mxCell id="yE31wyP4Al2Zmjlklze--220" value="A8" style="text;html=1;align=center;verticalAlign=middle;whiteSpace=wrap;rounded=0;fontSize=16;" vertex="1" parent="1">
          <mxGeometry x="-70" y="760" width="40" height="40" as="geometry" />
        </mxCell>
        <mxCell id="yE31wyP4Al2Zmjlklze--221" value="2 Host" style="text;html=1;align=center;verticalAlign=middle;whiteSpace=wrap;rounded=0;fontSize=16;" vertex="1" parent="1">
          <mxGeometry x="-15" y="800" width="60" height="30" as="geometry" />
        </mxCell>
        <mxCell id="yE31wyP4Al2Zmjlklze--222" value="" style="endArrow=classic;html=1;rounded=0;entryX=0.5;entryY=0;entryDx=0;entryDy=0;exitX=0.5;exitY=1;exitDx=0;exitDy=0;" edge="1" parent="1" target="yE31wyP4Al2Zmjlklze--225" source="yE31wyP4Al2Zmjlklze--136">
          <mxGeometry width="50" height="50" relative="1" as="geometry">
            <mxPoint x="-70" y="690" as="sourcePoint" />
            <mxPoint x="-75" y="680" as="targetPoint" />
          </mxGeometry>
        </mxCell>
        <mxCell id="yE31wyP4Al2Zmjlklze--223" value="" style="endArrow=classic;html=1;rounded=0;entryX=0.5;entryY=0;entryDx=0;entryDy=0;exitX=0.5;exitY=1;exitDx=0;exitDy=0;" edge="1" parent="1" target="yE31wyP4Al2Zmjlklze--219" source="yE31wyP4Al2Zmjlklze--136">
          <mxGeometry width="50" height="50" relative="1" as="geometry">
            <mxPoint x="-70" y="690" as="sourcePoint" />
            <mxPoint x="-65" y="690" as="targetPoint" />
          </mxGeometry>
        </mxCell>
        <mxCell id="yE31wyP4Al2Zmjlklze--224" value="" style="group" vertex="1" connectable="0" parent="1">
          <mxGeometry x="-270" y="760" width="160" height="40" as="geometry" />
        </mxCell>
        <mxCell id="yE31wyP4Al2Zmjlklze--225" value="10.6.x.x/26" style="rounded=0;whiteSpace=wrap;html=1;fontSize=16;" vertex="1" parent="yE31wyP4Al2Zmjlklze--224">
          <mxGeometry x="40" width="120" height="40" as="geometry" />
        </mxCell>
        <mxCell id="yE31wyP4Al2Zmjlklze--226" value="C1" style="text;html=1;align=center;verticalAlign=middle;whiteSpace=wrap;rounded=0;fontSize=16;" vertex="1" parent="yE31wyP4Al2Zmjlklze--224">
          <mxGeometry width="40" height="40" as="geometry" />
        </mxCell>
        <mxCell id="yE31wyP4Al2Zmjlklze--227" value="" style="ellipse;whiteSpace=wrap;html=1;fillColor=none;" vertex="1" parent="1">
          <mxGeometry x="-70" y="720" width="170" height="120" as="geometry" />
        </mxCell>
        <mxCell id="yE31wyP4Al2Zmjlklze--229" value="10.6.x.x/30" style="rounded=0;whiteSpace=wrap;html=1;fontSize=16;" vertex="1" parent="1">
          <mxGeometry x="-130" y="880" width="120" height="40" as="geometry" />
        </mxCell>
        <mxCell id="yE31wyP4Al2Zmjlklze--230" value="A9" style="text;html=1;align=center;verticalAlign=middle;whiteSpace=wrap;rounded=0;fontSize=16;" vertex="1" parent="1">
          <mxGeometry x="-170" y="880" width="40" height="40" as="geometry" />
        </mxCell>
        <mxCell id="yE31wyP4Al2Zmjlklze--231" value="2 Host" style="text;html=1;align=center;verticalAlign=middle;whiteSpace=wrap;rounded=0;fontSize=16;" vertex="1" parent="1">
          <mxGeometry x="-115" y="920" width="60" height="30" as="geometry" />
        </mxCell>
        <mxCell id="yE31wyP4Al2Zmjlklze--232" value="" style="endArrow=classic;html=1;rounded=0;entryX=0.5;entryY=0;entryDx=0;entryDy=0;exitX=0.5;exitY=1;exitDx=0;exitDy=0;" edge="1" parent="1" target="yE31wyP4Al2Zmjlklze--235" source="yE31wyP4Al2Zmjlklze--225">
          <mxGeometry width="50" height="50" relative="1" as="geometry">
            <mxPoint x="-170" y="820" as="sourcePoint" />
            <mxPoint x="-175" y="790" as="targetPoint" />
          </mxGeometry>
        </mxCell>
        <mxCell id="yE31wyP4Al2Zmjlklze--233" value="" style="endArrow=classic;html=1;rounded=0;entryX=0.5;entryY=0;entryDx=0;entryDy=0;exitX=0.5;exitY=1;exitDx=0;exitDy=0;" edge="1" parent="1" target="yE31wyP4Al2Zmjlklze--229" source="yE31wyP4Al2Zmjlklze--225">
          <mxGeometry width="50" height="50" relative="1" as="geometry">
            <mxPoint x="-150" y="830" as="sourcePoint" />
            <mxPoint x="-165" y="800" as="targetPoint" />
          </mxGeometry>
        </mxCell>
        <mxCell id="yE31wyP4Al2Zmjlklze--234" value="" style="group" vertex="1" connectable="0" parent="1">
          <mxGeometry x="-370" y="880" width="160" height="40" as="geometry" />
        </mxCell>
        <mxCell id="yE31wyP4Al2Zmjlklze--235" value="10.6.x.x/27" style="rounded=0;whiteSpace=wrap;html=1;fontSize=16;" vertex="1" parent="yE31wyP4Al2Zmjlklze--234">
          <mxGeometry x="40" width="120" height="40" as="geometry" />
        </mxCell>
        <mxCell id="yE31wyP4Al2Zmjlklze--236" value="B2" style="text;html=1;align=center;verticalAlign=middle;whiteSpace=wrap;rounded=0;fontSize=16;" vertex="1" parent="yE31wyP4Al2Zmjlklze--234">
          <mxGeometry width="40" height="40" as="geometry" />
        </mxCell>
        <mxCell id="yE31wyP4Al2Zmjlklze--237" value="" style="ellipse;whiteSpace=wrap;html=1;fillColor=none;" vertex="1" parent="1">
          <mxGeometry x="-170" y="840" width="170" height="120" as="geometry" />
        </mxCell>
        <mxCell id="yE31wyP4Al2Zmjlklze--238" value="" style="ellipse;whiteSpace=wrap;html=1;fillColor=none;" vertex="1" parent="1">
          <mxGeometry x="220" y="720" width="170" height="120" as="geometry" />
        </mxCell>
        <mxCell id="yE31wyP4Al2Zmjlklze--239" value="111 Host" style="text;html=1;align=center;verticalAlign=middle;whiteSpace=wrap;rounded=0;fontSize=16;" vertex="1" parent="1">
          <mxGeometry x="267.5" y="800" width="75" height="30" as="geometry" />
        </mxCell>
        <mxCell id="yE31wyP4Al2Zmjlklze--240" value="10.6.x.x/27" style="rounded=0;whiteSpace=wrap;html=1;fontSize=16;" vertex="1" parent="1">
          <mxGeometry x="460" y="760" width="120" height="40" as="geometry" />
        </mxCell>
        <mxCell id="yE31wyP4Al2Zmjlklze--241" value="A20" style="text;html=1;align=center;verticalAlign=middle;whiteSpace=wrap;rounded=0;fontSize=16;" vertex="1" parent="1">
          <mxGeometry x="420" y="760" width="40" height="40" as="geometry" />
        </mxCell>
        <mxCell id="yE31wyP4Al2Zmjlklze--242" value="" style="endArrow=classic;html=1;rounded=0;entryX=0.5;entryY=0;entryDx=0;entryDy=0;exitX=0.5;exitY=1;exitDx=0;exitDy=0;" edge="1" parent="1" target="yE31wyP4Al2Zmjlklze--245" source="yE31wyP4Al2Zmjlklze--173">
          <mxGeometry width="50" height="50" relative="1" as="geometry">
            <mxPoint x="420" y="690" as="sourcePoint" />
            <mxPoint x="415" y="670" as="targetPoint" />
          </mxGeometry>
        </mxCell>
        <mxCell id="yE31wyP4Al2Zmjlklze--243" value="" style="endArrow=classic;html=1;rounded=0;entryX=0.5;entryY=0;entryDx=0;entryDy=0;exitX=0.5;exitY=1;exitDx=0;exitDy=0;" edge="1" parent="1" target="yE31wyP4Al2Zmjlklze--240" source="yE31wyP4Al2Zmjlklze--173">
          <mxGeometry width="50" height="50" relative="1" as="geometry">
            <mxPoint x="430" y="700" as="sourcePoint" />
            <mxPoint x="425" y="680" as="targetPoint" />
          </mxGeometry>
        </mxCell>
        <mxCell id="yE31wyP4Al2Zmjlklze--244" value="" style="group" vertex="1" connectable="0" parent="1">
          <mxGeometry x="220" y="760" width="160" height="40" as="geometry" />
        </mxCell>
        <mxCell id="yE31wyP4Al2Zmjlklze--245" value="10.6.x.x/25" style="rounded=0;whiteSpace=wrap;html=1;fontSize=16;" vertex="1" parent="yE31wyP4Al2Zmjlklze--244">
          <mxGeometry x="40" width="120" height="40" as="geometry" />
        </mxCell>
        <mxCell id="yE31wyP4Al2Zmjlklze--246" value="A19" style="text;html=1;align=center;verticalAlign=middle;whiteSpace=wrap;rounded=0;fontSize=16;" vertex="1" parent="yE31wyP4Al2Zmjlklze--244">
          <mxGeometry width="40" height="40" as="geometry" />
        </mxCell>
        <mxCell id="yE31wyP4Al2Zmjlklze--247" value="" style="ellipse;whiteSpace=wrap;html=1;fillColor=none;" vertex="1" parent="1">
          <mxGeometry x="420" y="720" width="170" height="120" as="geometry" />
        </mxCell>
        <mxCell id="yE31wyP4Al2Zmjlklze--248" value="27 Host" style="text;html=1;align=center;verticalAlign=middle;whiteSpace=wrap;rounded=0;fontSize=16;" vertex="1" parent="1">
          <mxGeometry x="475" y="800" width="60" height="30" as="geometry" />
        </mxCell>
        <mxCell id="yE31wyP4Al2Zmjlklze--250" value="" style="ellipse;whiteSpace=wrap;html=1;fillColor=none;" vertex="1" parent="1">
          <mxGeometry x="-470" y="960" width="170" height="120" as="geometry" />
        </mxCell>
        <mxCell id="yE31wyP4Al2Zmjlklze--251" value="13 Host" style="text;html=1;align=center;verticalAlign=middle;whiteSpace=wrap;rounded=0;fontSize=16;" vertex="1" parent="1">
          <mxGeometry x="-422.5" y="1040" width="75" height="30" as="geometry" />
        </mxCell>
        <mxCell id="yE31wyP4Al2Zmjlklze--252" value="10.6.x.x/30" style="rounded=0;whiteSpace=wrap;html=1;fontSize=16;" vertex="1" parent="1">
          <mxGeometry x="-230" y="1000" width="120" height="40" as="geometry" />
        </mxCell>
        <mxCell id="yE31wyP4Al2Zmjlklze--253" value="A10" style="text;html=1;align=center;verticalAlign=middle;whiteSpace=wrap;rounded=0;fontSize=16;" vertex="1" parent="1">
          <mxGeometry x="-270" y="1000" width="40" height="40" as="geometry" />
        </mxCell>
        <mxCell id="yE31wyP4Al2Zmjlklze--254" value="" style="endArrow=classic;html=1;rounded=0;entryX=0.5;entryY=0;entryDx=0;entryDy=0;exitX=0.5;exitY=1;exitDx=0;exitDy=0;" edge="1" parent="1" target="yE31wyP4Al2Zmjlklze--257" source="yE31wyP4Al2Zmjlklze--235">
          <mxGeometry width="50" height="50" relative="1" as="geometry">
            <mxPoint x="-270" y="930" as="sourcePoint" />
            <mxPoint x="-275" y="910" as="targetPoint" />
          </mxGeometry>
        </mxCell>
        <mxCell id="yE31wyP4Al2Zmjlklze--255" value="" style="endArrow=classic;html=1;rounded=0;entryX=0.5;entryY=0;entryDx=0;entryDy=0;exitX=0.5;exitY=1;exitDx=0;exitDy=0;" edge="1" parent="1" target="yE31wyP4Al2Zmjlklze--252" source="yE31wyP4Al2Zmjlklze--235">
          <mxGeometry width="50" height="50" relative="1" as="geometry">
            <mxPoint x="-260" y="940" as="sourcePoint" />
            <mxPoint x="-265" y="920" as="targetPoint" />
          </mxGeometry>
        </mxCell>
        <mxCell id="yE31wyP4Al2Zmjlklze--256" value="" style="group" vertex="1" connectable="0" parent="1">
          <mxGeometry x="-470" y="1000" width="160" height="40" as="geometry" />
        </mxCell>
        <mxCell id="yE31wyP4Al2Zmjlklze--257" value="10.6.x.x/28" style="rounded=0;whiteSpace=wrap;html=1;fontSize=16;" vertex="1" parent="yE31wyP4Al2Zmjlklze--256">
          <mxGeometry x="40" width="120" height="40" as="geometry" />
        </mxCell>
        <mxCell id="yE31wyP4Al2Zmjlklze--258" value="A11" style="text;html=1;align=center;verticalAlign=middle;whiteSpace=wrap;rounded=0;fontSize=16;" vertex="1" parent="yE31wyP4Al2Zmjlklze--256">
          <mxGeometry width="40" height="40" as="geometry" />
        </mxCell>
        <mxCell id="yE31wyP4Al2Zmjlklze--259" value="" style="ellipse;whiteSpace=wrap;html=1;fillColor=none;" vertex="1" parent="1">
          <mxGeometry x="-270" y="960" width="170" height="120" as="geometry" />
        </mxCell>
        <mxCell id="yE31wyP4Al2Zmjlklze--260" value="2 Host" style="text;html=1;align=center;verticalAlign=middle;whiteSpace=wrap;rounded=0;fontSize=16;" vertex="1" parent="1">
          <mxGeometry x="-215" y="1040" width="60" height="30" as="geometry" />
        </mxCell>
      </root>
    </mxGraphModel>
  </diagram>
</mxfile>
